<svg width="23" height="24" viewBox="0 0 23 24" fill="none" xmlns="http://www.w3.org/2000/svg">
<path d="M8.48171 20.7733V17.7156C8.48171 16.9351 9.07073 16.3023 9.79732 16.3023H12.4534C12.8023 16.3023 13.1369 16.4512 13.3836 16.7163C13.6304 16.9813 13.769 17.3408 13.769 17.7156V20.7733C13.7668 21.0978 13.8852 21.4099 14.0981 21.6402C14.3109 21.8705 14.6005 22 14.9026 22H16.7146C17.5609 22.0023 18.3733 21.6428 18.9725 21.0008C19.5717 20.3588 19.9085 19.487 19.9085 18.5778V9.86686C19.9085 9.13246 19.6055 8.43584 19.0811 7.96467L12.9167 2.67587C11.8444 1.74856 10.3081 1.7785 9.26777 2.74698L3.24409 7.96467C2.69492 8.42195 2.36668 9.12064 2.35046 9.86686V18.5689C2.35046 20.4639 3.78041 22 5.54434 22H7.31504C7.94245 22 8.45234 21.4562 8.45689 20.7822L8.48171 20.7733Z" fill="#00F2F2"/>
</svg>
