<svg width="24" height="26" viewBox="0 0 24 26" fill="none" xmlns="http://www.w3.org/2000/svg">
<path opacity="0.5" d="M20.0333 4.51472L19.666 4.85406L20.0333 4.51472ZM12.1919 24.04V24.54H12.1926L12.1919 24.04ZM22.3941 13L22.8941 13.0005V13H22.3941ZM6.16559 16.36V15.86H5.02273L5.79837 16.6993L6.16559 16.36ZM8.06984 18.4206L7.70257 18.76L7.70857 18.7663L8.06984 18.4206ZM7.44263 19.0994L7.81571 18.7664L7.80984 18.76L7.44263 19.0994ZM4.7812 16.2194L4.41393 16.5587L4.41399 16.5587L4.7812 16.2194ZM4.7812 15.5406L4.41399 15.2013L4.41393 15.2014L4.7812 15.5406ZM7.44263 12.6606L7.0813 12.3149L7.07541 12.3213L7.44263 12.6606ZM8.06443 12.6665L8.43165 12.3271L8.43165 12.3271L8.06443 12.6665ZM8.06984 13.3394L8.43711 13.6788L8.44287 13.6723L8.06984 13.3394ZM6.16559 15.4L5.79837 15.0607L5.02273 15.9H6.16559V15.4ZM19.7327 10.12L19.2327 10.1195V10.1205L19.7327 10.12ZM19.6027 10.4594L19.236 10.1195L19.2355 10.12L19.6027 10.4594ZM19.6027 9.78064L19.2355 10.12L19.236 10.1205L19.6027 9.78064ZM16.9413 6.90064L17.3085 6.56125L17.3025 6.55498L16.9413 6.90064ZM16.3195 6.90649L16.6867 7.24583L16.6867 7.24583L16.3195 6.90649ZM16.3141 7.57936L15.941 7.91235L15.9468 7.91871L16.3141 7.57936ZM18.2183 9.64V10.14H19.3612L18.5855 9.30066L18.2183 9.64ZM18.2183 10.6L18.5855 10.9393L19.3612 10.1H18.2183V10.6ZM16.3141 12.6606L15.9468 12.3212L15.941 12.3277L16.3141 12.6606ZM16.3195 13.3335L16.6867 12.9942L16.6867 12.9942L16.3195 13.3335ZM16.9413 13.3394L17.3026 13.6851L17.3085 13.6787L16.9413 13.3394ZM12.1919 0.5C5.75494 0.5 0.602661 6.13433 0.602661 13H1.60266C1.60266 6.61083 6.38007 1.5 12.1919 1.5V0.5ZM20.4005 4.17537C18.2307 1.82736 15.2789 0.5 12.1919 0.5V1.5C14.9871 1.5 17.6766 2.7012 19.666 4.85406L20.4005 4.17537ZM23.7812 13C23.7812 9.69697 22.5691 6.52206 20.4005 4.17537L19.666 4.85406C21.6567 7.00825 22.7812 9.93783 22.7812 13H23.7812ZM12.1919 25.5C18.629 25.5 23.7812 19.8657 23.7812 13H22.7812C22.7812 19.3892 18.0038 24.5 12.1919 24.5V25.5ZM0.602661 13C0.602661 19.8657 5.75494 25.5 12.1919 25.5V24.5C6.38007 24.5 1.60266 19.3892 1.60266 13H0.602661ZM12.1919 23.54C6.87003 23.54 2.4898 18.859 2.4898 13H1.4898C1.4898 19.3355 6.24489 24.54 12.1919 24.54V23.54ZM21.8941 12.9995C21.888 18.8559 17.5112 23.5336 12.1913 23.54L12.1926 24.54C18.1364 24.5328 22.8875 19.3329 22.8941 13.0005L21.8941 12.9995ZM12.1919 2.46C17.5139 2.46 21.8941 7.14103 21.8941 13H22.8941C22.8941 6.66453 18.139 1.46 12.1919 1.46V2.46ZM2.4898 13C2.4898 7.14103 6.87003 2.46 12.1919 2.46V1.46C6.24489 1.46 1.4898 6.66453 1.4898 13H2.4898ZM14.8534 16.86C15.4109 16.86 15.7969 16.3833 15.7969 15.88H14.7969C14.7969 15.887 14.7945 15.8858 14.7998 15.8801C14.8026 15.8771 14.8083 15.8721 14.8179 15.8676C14.8281 15.863 14.8406 15.86 14.8534 15.86V16.86ZM6.16559 16.86H14.8534V15.86H6.16559V16.86ZM8.43705 18.0813L6.5328 16.0207L5.79837 16.6993L7.70262 18.76L8.43705 18.0813ZM8.67678 19.005C8.75572 18.6786 8.6691 18.3237 8.43111 18.075L7.70857 18.7663C7.70405 18.7616 7.70413 18.7593 7.70477 18.7617C7.7054 18.7642 7.70545 18.7673 7.70481 18.7699L8.67678 19.005ZM8.01027 19.7113C8.35364 19.6141 8.59747 19.3329 8.67678 19.005L7.70481 18.7699C7.70421 18.7724 7.70403 18.7704 7.70812 18.766C7.71233 18.7614 7.72186 18.7537 7.73774 18.7492L8.01027 19.7113ZM7.0696 19.4323C7.30229 19.693 7.6624 19.8099 8.01027 19.7113L7.73774 18.7492C7.75405 18.7446 7.77175 18.745 7.7871 18.7496C7.80222 18.7542 7.81145 18.7617 7.81566 18.7664L7.0696 19.4323ZM4.41399 16.5587L7.07541 19.4387L7.80984 18.76L5.14841 15.88L4.41399 16.5587ZM4.41393 15.2014C4.06379 15.5804 4.06379 16.1796 4.41393 16.5587L5.14846 15.8801V15.8799L4.41393 15.2014ZM7.07541 12.3213L4.41399 15.2013L5.14841 15.88L7.80984 13L7.07541 12.3213ZM8.43165 12.3271C8.06541 11.9308 7.45515 11.9243 7.08136 12.315L7.8039 13.0063C7.79595 13.0146 7.77638 13.0261 7.74993 13.0259C7.72352 13.0256 7.70459 13.0138 7.69722 13.0058L8.43165 12.3271ZM8.44287 13.6723C8.78209 13.2922 8.77792 12.7019 8.43165 12.3271L7.69722 13.0058L7.69681 13.0064L8.44287 13.6723ZM6.5328 15.7393L8.43705 13.6787L7.70262 13L5.79837 15.0607L6.5328 15.7393ZM14.8534 14.9H6.16559V15.9H14.8534V14.9ZM15.7969 15.88C15.7969 15.3767 15.4109 14.9 14.8534 14.9V15.9C14.8406 15.9 14.8281 15.897 14.8179 15.8924C14.8083 15.8879 14.8026 15.8829 14.7998 15.8799C14.7945 15.8742 14.7969 15.873 14.7969 15.88H15.7969ZM19.2327 10.1205C19.2327 10.123 19.2322 10.1245 19.232 10.1249C19.2319 10.1253 19.2326 10.1231 19.236 10.1195L19.9694 10.7992C20.1421 10.6129 20.2329 10.3676 20.2327 10.1195L19.2327 10.1205ZM19.236 10.1205C19.2326 10.1169 19.2319 10.1147 19.232 10.1151C19.2322 10.1155 19.2327 10.117 19.2327 10.1195L20.2327 10.1205C20.2329 9.87237 20.1421 9.62712 19.9694 9.44076L19.236 10.1205ZM16.5741 7.23999L19.2355 10.12L19.9699 9.4413L17.3085 6.5613L16.5741 7.23999ZM16.6867 7.24583C16.6793 7.25381 16.6604 7.26565 16.634 7.2659C16.6075 7.26614 16.5879 7.25461 16.58 7.2463L17.3025 6.55498C16.9287 6.1643 16.3185 6.17083 15.9522 6.56714L16.6867 7.24583ZM16.6871 7.24642L16.6867 7.24583L15.9522 6.56714C15.606 6.94186 15.6018 7.53223 15.941 7.9123L16.6871 7.24642ZM18.5855 9.30066L16.6813 7.24002L15.9468 7.91871L17.8511 9.97935L18.5855 9.30066ZM9.53052 10.14H18.2183V9.14H9.53052V10.14ZM9.58695 10.12C9.58695 10.113 9.58937 10.1142 9.58408 10.1199C9.5813 10.1229 9.57562 10.1279 9.56595 10.1324C9.55578 10.137 9.54332 10.14 9.53052 10.14V9.14C8.97297 9.14 8.58695 9.61665 8.58695 10.12H9.58695ZM9.53052 10.1C9.54332 10.1 9.55578 10.103 9.56595 10.1076C9.57562 10.1121 9.5813 10.1171 9.58408 10.1201C9.58937 10.1258 9.58695 10.127 9.58695 10.12H8.58695C8.58695 10.6234 8.97297 11.1 9.53052 11.1V10.1ZM18.2183 10.1H9.53052V11.1H18.2183V10.1ZM16.6813 13L18.5855 10.9393L17.8511 10.2607L15.9468 12.3213L16.6813 13ZM16.6867 12.9942L16.6871 12.9936L15.941 12.3277C15.6018 12.7078 15.606 13.2981 15.9522 13.6729L16.6867 12.9942ZM16.58 12.9937C16.5879 12.9854 16.6075 12.9739 16.634 12.9741C16.6604 12.9744 16.6793 12.9862 16.6867 12.9942L15.9522 13.6729C16.3185 14.0692 16.9287 14.0757 17.3025 13.685L16.58 12.9937ZM19.2355 10.12L16.5741 13L17.3085 13.6787L19.9699 10.7987L19.2355 10.12Z" fill="white"/>
</svg>
