<svg width="23" height="24" viewBox="0 0 23 24" fill="none" xmlns="http://www.w3.org/2000/svg">
<g opacity="0.6">
<path d="M9.29469 16.548L9.30826 16.5472L9.32181 16.546C10.5944 16.4351 11.8728 16.4351 13.1454 16.546L13.1573 16.5471L13.1693 16.5478C13.8442 16.5904 14.5162 16.6817 15.181 16.8212C16.6433 17.1422 17.2463 17.5992 17.47 18.0529C17.6647 18.4754 17.6647 18.9856 17.47 19.4081C17.2403 19.8747 16.6575 20.357 15.189 20.6349L15.1753 20.6375L15.1617 20.6404C14.4983 20.7852 13.8273 20.8792 13.153 20.9219L13.1254 20.9237L13.0979 20.927C12.4951 20.9988 11.883 21 11.1936 21H10.037C9.7735 20.9661 9.51324 20.948 9.25663 20.9467C8.59354 20.9084 7.93343 20.818 7.28117 20.6759L7.28118 20.6759L7.27161 20.6739C5.81976 20.3725 5.20987 19.8979 4.98624 19.4376C4.88645 19.2309 4.8313 18.9941 4.83042 18.7491L4.83038 18.7441C4.82828 18.4989 4.88163 18.2612 4.98067 18.0538L4.98119 18.0528C5.19749 17.5986 5.80248 17.116 7.26424 16.824L7.26425 16.8241L7.27614 16.8216C7.94299 16.6799 8.61735 16.5886 9.29469 16.548ZM11.2256 3C13.2556 3 15.0784 4.86686 15.0784 7.40036C15.0784 9.93385 13.2556 11.8007 11.2256 11.8007C9.19565 11.8007 7.37283 9.93385 7.37283 7.40036C7.37283 4.86686 9.19565 3 11.2256 3Z" stroke="white" stroke-width="2"/>
</g>
</svg>
